# xmcd CD database file
#
# Track frame offsets:
#	150
#	22411
#	39673
#
# Disc length: 825 seconds
#
# Revision: 4
# Processed by: cddbd v1.5.2PL0 Copyright (c) Steve Scherf et al.
# Submitted via: CDex 2.04
#
DISCID=24033703
DTITLE=Morning Musume - Aruiteru
DYEAR=2006
DGENRE=J-Pop
TTITLE0=Aruiteru
TTITLE1=Odore! Morning Curry
TTITLE2=Aruiteru (Instrumental)
EXTD=YEAR: 2006
EXTT0=
EXTT1=
EXTT2=
PLAYORDER=
